Coordinates
version=1
nRows=17
nColumns=36
inDegrees=yes

Units are S.I. units (second, meters, Newtons, ...)
If the header above contains a line with 'inDegrees', this indicates whether rotational values are in degrees (yes) or radians (no).

endheader
time	pelvis_tilt	pelvis_list	pelvis_rotation	pelvis_tx	pelvis_ty	pelvis_tz	hip_flexion_r	hip_adduction_r	hip_rotation_r	knee_angle_r	knee_angle_r_beta	ankle_angle_r	subtalar_angle_r	mtp_angle_r	hip_flexion_l	hip_adduction_l	hip_rotation_l	knee_angle_l	knee_angle_l_beta	ankle_angle_l	subtalar_angle_l	mtp_angle_l	lumbar_extension	lumbar_bending	lumbar_rotation	arm_flex_r	arm_add_r	arm_rot_r	elbow_flex_r	pro_sup_r	arm_flex_l	arm_add_l	arm_rot_l	elbow_flex_l	pro_sup_l
      2.15000000	    -25.48164919	     -3.15384562	     -3.91501948	     -0.52449028	      0.75808580	     -0.63995357	     96.90445326	     -4.84844023	      7.60834486	     85.10896088	      1.48543159	     13.03385687	    -11.50362436	     -7.49754345	     99.56460030	    -15.10268143	     10.75813194	     90.90811939	      1.58664600	     17.91566075	     -3.18162180	     -7.49754345	    -41.02001195	      1.22713549	      9.09835724	    126.93902812	    -22.16728241	     46.43292240	     87.63110889	    101.43812028	    118.14702508	    -12.20144770	     37.07554397	     84.29237710	    101.44455664
      2.16000000	    -24.97011340	     -3.22848828	     -4.01912779	     -0.52021842	      0.76796295	     -0.64053878	     95.21186281	     -4.65535706	      7.53165270	     84.08020805	      1.46747647	     13.02945062	    -11.66181902	     -7.49756379	     97.82800516	    -15.04107473	     10.69663760	     89.98079345	      1.57046111	     18.03258076	     -3.59621908	     -7.49756379	    -40.78444557	      1.29613567	      9.31750429	    125.06955352	    -22.90229081	     46.61580530	     89.28262771	    101.73954405	    116.24433619	    -12.75836771	     37.50276425	     85.84892622	    101.76298268
      2.17000000	    -24.64068604	     -3.29542496	     -4.12198176	     -0.51597844	      0.77787897	     -0.64118977	     93.67173782	     -4.52389111	      7.39096119	     82.95385503	      1.44781790	     12.86718620	    -11.98804443	     -7.49761901	     96.24843323	    -14.97036815	     10.60463570	     88.96748830	      1.55277560	     17.90058016	     -4.25671982	     -7.49761901	    -40.19366333	      1.39391285	      9.49766206	    122.64236176	    -23.57477075	     46.43170793	     90.89136938	    102.29200732	    114.03871873	    -13.27695388	     37.79724957	     87.31848677	    102.24815954
      2.18000000	    -24.22413989	     -3.34259177	     -4.26107867	     -0.51172214	      0.78823364	     -0.64180866	     92.01615392	     -4.39579296	      7.23767458	     81.76016308	      1.42698404	     12.77012783	    -12.12881140	     -7.49766813	     94.54575322	    -15.01491389	     10.40436494	     87.91033101	      1.53432472	     17.89202034	     -4.74063788	     -7.49766813	    -39.69275142	      1.43574134	      9.67021817	    120.29250163	    -24.30706982	     46.43599414	     92.47895549	    102.77580903	    111.91721953	    -13.84626331	     38.25154267	     88.76370975	    102.65700253
      2.19000000	    -23.67051146	     -3.36215389	     -4.48320605	     -0.50744645	      0.79925851	     -0.64237184	     90.17767766	     -4.23160291	      7.07790379	     80.46415270	      1.40436439	     12.69786120	    -12.08863021	     -7.49768341	     92.63414759	    -15.19165980	     10.12599289	     86.79146829	      1.51479688	     17.95997717	     -5.01206222	     -7.49768341	    -39.32661040	      1.41662872	      9.89323543	    117.99785093	    -25.09924344	     46.73798499	     93.95386992	    103.00458479	    109.84170152	    -14.49941663	     38.86775187	     90.12468925	    102.90061144
      2.20000000	    -23.12214138	     -3.32638304	     -4.78833398	     -0.50314522	      0.81083132	     -0.64273386	     88.28715413	     -3.98260301	      6.98333480	     79.02297464	      1.37921109	     12.61013589	    -12.08354327	     -7.49770379	     90.62963915	    -15.47561731	      9.73162378	     85.54256869	      1.49299947	     18.00182888	     -5.38112694	     -7.49770379	    -38.91832457	      1.26485328	     10.05659306	    115.33092036	    -25.78197585	     46.55851419	     95.53021647	    103.24385092	    107.75687026	    -15.16094746	     39.48353174	     91.51811469	    103.16172371
      2.21000000	    -22.51801925	     -3.15012712	     -5.05184956	     -0.49877573	      0.82280322	     -0.64306122	     86.37119193	     -3.85606570	      6.95964996	     77.56462980	      1.35375817	     12.41379331	    -12.10036944	     -7.49774763	     88.46872699	    -15.71279061	      9.11064146	     84.18840286	      1.46936482	     17.87915246	     -5.81474571	     -7.49774763	    -38.41429599	      0.98144338	      9.92539230	    112.15009628	    -26.17433590	     46.02874154	     96.82760177	    103.55410263	    105.71966728	    -15.97567102	     40.40934296	     92.62084349	    103.47566405
      2.22000000	    -21.79655324	     -3.05492090	     -5.27517352	     -0.49430671	      0.83548101	     -0.64372923	     84.25148583	     -3.83174913	      6.84573782	     75.98812022	      1.32624289	     12.25348604	    -11.88244783	     -7.49776288	     86.13182772	    -15.90187583	      8.52131717	     82.73420958	      1.44398436	     17.84846707	     -6.01859946	     -7.49776288	    -38.10067657	      0.87820186	      9.93143687	    109.54355470	    -26.73862203	     46.41376166	     98.15213942	    103.71957903	    103.61918794	    -16.77221750	     41.20490965	     93.86622074	    103.69413380
      2.23000000	    -21.04218499	     -2.82151444	     -5.35748973	     -0.48960814	      0.84861712	     -0.64482631	     82.08074551	     -4.04565606	      6.86681257	     74.34640633	      1.29758958	     12.09391719	    -11.54727064	     -7.49777850	     83.63124219	    -15.87390092	      7.74057617	     81.12403367	      1.41588149	     17.80195141	     -6.32656561	     -7.49777850	    -37.77422346	      0.72723526	      9.67142443	    106.73064521	    -27.22803441	     46.60520203	     99.47709601	    103.85039168	    101.52869481	    -17.65364127	     42.02281691	     95.11875482	    103.90497595
      2.24000000	    -20.29188226	     -2.47859213	     -5.57487360	     -0.48473803	      0.86209295	     -0.64555529	     79.90073100	     -4.17890371	      6.96879439	     72.59048660	      1.26694300	     11.98963165	    -11.11261471	     -7.49779954	     81.03343346	    -15.92997241	      6.83998421	     79.40621833	      1.38589996	     17.65830386	     -6.74833141	     -7.49779954	    -37.39535994	      0.35287683	      9.30155029	    103.72396528	    -27.54008917	     46.53935919	    100.73555698	    103.96235596	     99.51775814	    -18.70435617	     42.91681568	     96.40715259	    104.12454668
      2.25000000	    -19.59382326	     -2.19685619	     -5.98189960	     -0.47965495	      0.87561091	     -0.64541853	     77.72091061	     -4.03524319	      7.07628971	     70.77597250	      1.23527375	     11.91429440	    -10.75775426	     -7.49784093	     78.49302329	    -16.29340970	      5.83523776	     77.65185613	      1.35528056	     17.37611413	     -7.17791887	     -7.49784093	    -36.84141837	     -0.12353080	      8.95508181	    100.35681987	    -27.56963931	     46.28305717	    101.79292190	    104.07291525	     97.54976970	    -19.97302035	     43.96590229	     97.60435696	    104.38982506
      2.26000000	    -18.90657397	     -2.17894864	     -6.57719066	     -0.47438094	      0.88935765	     -0.64479181	     75.41725490	     -3.61254853	      6.95222547	     68.80414344	      1.20085884	     11.73423062	    -10.57698072	     -7.49785590	     75.99991227	    -16.95146055	      5.02180631	     75.90337819	      1.32476386	     17.21046457	     -7.24746879	     -7.49785590	    -36.29460277	     -0.43387331	      9.08494791	     97.34166497	    -27.89737223	     46.67003732	    103.06438321	    104.18667047	     95.36800687	    -21.08605161	     44.69057240	     98.85359386	    104.61690455
      2.27000000	    -18.05830890	     -1.82774303	     -6.89798929	     -0.46882637	      0.90344244	     -0.64485109	     73.04701613	     -3.70494426	      7.01228754	     66.90310616	      1.16767948	     11.47327809	    -10.54756177	     -7.49789903	     73.15388689	    -17.08863170	      3.88168362	     73.95278579	      1.29071960	     16.98884270	     -7.57559435	     -7.49789903	    -35.79792068	     -0.94872891	      8.55619677	     93.84669113	    -27.74573720	     46.37448093	    104.03861301	    104.23887936	     93.21518551	    -22.42392876	     45.57126121	    100.09358154	    104.95700101
      2.28000000	    -17.17415196	     -1.46423383	     -7.01624265	     -0.46310689	      0.91767709	     -0.64566706	     70.60771109	     -4.09819990	      7.01977282	     64.93658463	      1.13335721	     11.28643132	    -10.22854898	     -7.49793538	     70.25385749	    -16.87494632	      2.84470334	     71.88133004	      1.25456588	     16.67547887	     -7.88457386	     -7.49793538	    -35.30898516	     -1.27384656	      7.92862534	     90.55589890	    -27.69482994	     46.38998415	    105.01732452	    104.28985918	     90.85175072	    -23.68676087	     46.28715509	    101.29078468	    105.20724602
      2.29000000	    -16.23798846	     -1.22893384	     -7.10606222	     -0.45719564	      0.93208246	     -0.64646301	     68.03706801	     -4.49019117	      6.88264211	     62.87219558	      1.09732682	     11.00074448	     -9.76722121	     -7.49795445	     67.32795172	    -16.66338881	      1.94848550	     69.74456407	      1.21727228	     16.32072983	     -7.95482999	     -7.49795445	    -34.85387581	     -1.47387925	      7.39006411	     87.24769363	    -27.71759986	     46.42897814	    106.13065271	    104.34998419	     88.30646075	    -24.84856378	     46.82755751	    102.47809887	    105.38995580
      2.30000000	    -15.28885188	     -0.86939193	     -7.24240205	     -0.45101098	      0.94652870	     -0.64700614	     65.46272571	     -4.89143876	      6.91986222	     60.77831463	      1.06078170	     10.93342180	     -9.12326300	     -7.49800972	     64.28510077	    -16.39785885	      0.85831424	     67.46822455	      1.17754266	     15.82024806	     -8.32473204	     -7.49800972	    -34.28200450	     -1.80913618	      6.63124074	     83.66787491	    -27.28514995	     46.23567679	    106.82979020	    104.41824146	     85.63258403	    -26.28457272	     47.36441747	    103.65398282	    105.61616875
      2.31000000	    -14.35255358	     -0.75843974	     -7.35821572	     -0.44450740	      0.96080604	     -0.64750694	     62.79441274	     -5.18991893	      6.71203391	     58.60043031	      1.02277045	     10.63582973	     -8.64550792	     -7.49803221	     61.32636547	    -16.22516310	      0.00495541	     65.22252324	      1.13834778	     15.51624233	     -8.34995440	     -7.49803221	    -33.65791512	     -1.90100893	      6.20016988	     80.07198416	    -27.21490186	     46.09153665	    107.82686238	    104.53021558	     82.62629885	    -27.39628552	     47.63683554	    104.72501297	    105.76952604
